PathFileType	4	(X/Y/Z)	/Users/itak/Documents/Research/Walk-IL/dataset/trc/00539_00009.trc
DataRate	CameraRate	NumFrames	NumMarkers	Units	OrigDataRate	OrigDataStartFrame	OrigNumFrames
100.000000	100.000000	4	53	mm	100.000000	0	761
Frame#	Time	RPSI			LPSI			L3			STRN			T10			C7			CLAV			RBAK			LBAK			LSHO			LUPA			LAEL			LAOL			LWTS			LWPS			LFRA			LIFD			LHPS			LHTS			RSHO			RUPA			RAEL			RAOL			RWTS			RWPS			RFRA			RIFD			RHTS			RHPS			RBHD			LFHD			RFHD			LBHD			LHIP			RHIP			RASI			LASI			LKNE			LTHI			LANK			LTIP			LTOE			LMT1			LMT5			LHEE			RKNE			RTHI			RANK			RTIP			RTOE			RMT1			RMT5			RHEE			
		X1	Y1	Z1	X2	Y2	Z2	X3	Y3	Z3	X4	Y4	Z4	X5	Y5	Z5	X6	Y6	Z6	X7	Y7	Z7	X8	Y8	Z8	X9	Y9	Z9	X10	Y10	Z10	X11	Y11	Z11	X12	Y12	Z12	X13	Y13	Z13	X14	Y14	Z14	X15	Y15	Z15	X16	Y16	Z16	X17	Y17	Z17	X18	Y18	Z18	X19	Y19	Z19	X20	Y20	Z20	X21	Y21	Z21	X22	Y22	Z22	X23	Y23	Z23	X24	Y24	Z24	X25	Y25	Z25	X26	Y26	Z26	X27	Y27	Z27	X28	Y28	Z28	X29	Y29	Z29	X30	Y30	Z30	X31	Y31	Z31	X32	Y32	Z32	X33	Y33	Z33	X34	Y34	Z34	X35	Y35	Z35	X36	Y36	Z36	X37	Y37	Z37	X38	Y38	Z38	X39	Y39	Z39	X40	Y40	Z40	X41	Y41	Z41	X42	Y42	Z42	X43	Y43	Z43	X44	Y44	Z44	X45	Y45	Z45	X46	Y46	Z46	X47	Y47	Z47	X48	Y48	Z48	X49	Y49	Z49	X50	Y50	Z50	X51	Y51	Z51	X52	Y52	Z52	X53	Y53	Z53	

1	0	-707.665771484375	1016.656311035156	529.1663818359375	-704.6288452148438	1021.224853515625	395.2314147949219	-703.334716796875	1108.166625976562	459.9025268554688	-479.0796813964844	1299.436645507812	453.8067016601562	-720.8058471679688	1232.912475585938	460.3595275878906	-678.8350219726562	1506.663452148438	473.3469848632812	-501.029541015625	1410.165893554688	456.5869445800781	-743.1961669921875	1380.320190429688	562.5491333007812	-712.8799438476562	1454.341430664062	380.6235961914062	-615.7293090820312	1480.787353515625	297.5892639160156	-621.7232666015625	1355.544189453125	215.4671020507812	-592.765869140625	1134.455322265625	187.7630157470703	-673.7748413085938	1120.585815429688	246.2616271972656	-485.8350524902344	894.504150390625	214.6423645019531	-539.61767578125	871.3892211914062	148.8431701660156	-567.6814575195312	1049.470947265625	176.6572875976562	-482.1619873046875	723.6917114257812	204.2618255615234	-527.1148071289062	812.006591796875	154.0695495605469	-469.60107421875	818.486572265625	190.1914978027344	-611.0707397460938	1468.488891601562	625.9837036132812	-625.684814453125	1402.298950195312	694.404541015625	-623.5233764648438	1111.340454101562	734.1946411132812	-677.8204956054688	1093.427490234375	707.0659790039062	-469.5310974121094	906.9327392578125	708.6118774414062	-531.392578125	871.7901611328125	759.4677124023438	-612.1724853515625	1055.623657226562	740.9990844726562	-475.4131774902344	719.4021606445312	695.0687255859375	-458.2315063476562	801.1283569335938	707.056396484375	-512.8544311523438	796.8231201171875	756.2656860351562	-630.8770751953125	1681.373413085938	522.2537231445312	-464.3249816894531	1725.857788085938	405.72314453125	-498.0626831054688	1724.484130859375	546.8797607421875	-584.336669921875	1683.525268554688	363.1024475097656	-577.014404296875	942.7723999023438	263.8345642089844	-585.4705200195312	941.5145263671875	651.528076171875	-498.7420349121094	970.6851806640625	593.9261474609375	-498.4895324707031	966.5389404296875	317.0479736328125	-566.7410888671875	496.1619262695312	317.7523803710938	-557.9695434570312	661.3115234375	282.2289123535156	-654.518310546875	34.66734313964844	315.5735473632812	-635.4818115234375	253.3998870849609	307.1166381835938	-444.6541442871094	38.60113143920898	375.6986389160156	-517.8862915039062	40.98177719116211	410.9670104980469	-531.5698852539062	35.81966018676758	304.6626281738281	-724.1573486328125	36.22172927856445	370.6249084472656	-576.8216552734375	495.9431457519531	598.0049438476562	-550.6691284179688	785.24072265625	645.56982421875	-676.0459594726562	38.67013549804688	578.8657836914062	-584.709228515625	353.581787109375	583.1201782226562	-455.5362243652344	40.21366882324219	534.406494140625	-520.3461303710938	39.27283096313477	493.9219055175781	-541.5206298828125	39.07533264160156	595.699462890625	-731.8917236328125	31.11997985839844	523.2763061523438	
2	0.01	-707.7551879882812	1016.660034179688	528.89794921875	-704.6502075195312	1021.195495605469	394.9700317382812	-703.412353515625	1108.154907226562	459.6423645019531	-479.1085205078125	1299.451538085938	453.6856689453125	-720.9879150390625	1232.89501953125	460.0834655761719	-678.9007568359375	1506.697509765625	473.0746154785156	-501.1077880859375	1410.17138671875	456.4619445800781	-743.2451782226562	1380.321044921875	562.263671875	-712.9192504882812	1454.342895507812	380.431640625	-615.6090698242188	1480.783447265625	297.306884765625	-621.5711059570312	1355.499145507812	215.3415069580078	-592.3248901367188	1134.385986328125	187.8434906005859	-673.4111328125	1120.514770507812	246.2535858154297	-485.0019836425781	894.6976928710938	215.1773223876953	-538.681640625	871.357177734375	149.3624877929688	-567.0629272460938	1049.435180664062	176.8574523925781	-481.0316162109375	723.8460083007812	205.0068969726562	-526.0994873046875	812.0263061523438	154.6791381835938	-468.6154479980469	818.68115234375	190.821044921875	-611.184814453125	1468.48291015625	625.7701416015625	-625.8507690429688	1402.34912109375	694.2462768554688	-623.5957641601562	1111.398559570312	734.1329956054688	-677.8330078125	1093.450561523438	707.0014038085938	-472.021240234375	905.0049438476562	706.2744140625	-531.2936401367188	871.9229736328125	759.4896240234375	-612.209716796875	1055.715576171875	740.9918212890625	-475.1401977539062	719.5628662109375	695.1044311523438	-457.9695129394531	801.3694458007812	706.9905395507812	-512.7222900390625	796.9873046875	756.2679443359375	-630.9472045898438	1681.317016601562	522.0775146484375	-464.3888244628906	1725.785888671875	405.6495361328125	-498.0813903808594	1724.443359375	546.6796264648438	-584.3857421875	1683.567504882812	362.992919921875	-576.81982421875	942.7236328125	263.919189453125	-585.7418212890625	941.4956665039062	651.3601684570312	-498.9029541015625	970.6688232421875	593.7546997070312	-498.5633544921875	966.494140625	316.9873962402344	-566.6607055664062	496.0987243652344	317.7052307128906	-557.9059448242188	661.3046264648438	282.0822448730469	-654.5216064453125	34.67583084106445	315.5938415527344	-635.441162109375	253.3852386474609	307.1104736328125	-444.6325988769531	38.60066604614258	375.7008666992188	-517.8700561523438	40.982666015625	410.9674682617188	-531.529541015625	35.85551452636719	304.6550903320312	-724.1326904296875	36.21160507202148	370.6201477050781	-576.986083984375	495.9683227539062	597.9031982421875	-550.8345336914062	785.2725830078125	645.4878540039062	-676.0631713867188	38.64585876464844	578.8485717773438	-584.8571166992188	353.6072692871094	583.0726928710938	-455.5422973632812	40.21990203857422	534.410400390625	-520.3412475585938	39.2903938293457	493.9085693359375	-541.5338134765625	39.07581329345703	595.7005615234375	-731.873779296875	31.09156608581543	523.2626342773438	
3	0.02	-707.8572998046875	1016.661071777344	528.5562133789062	-704.68115234375	1021.1630859375	394.64990234375	-703.48486328125	1108.133422851562	459.2959594726562	-479.150390625	1299.469116210938	453.5440063476562	-721.1806030273438	1232.86865234375	459.7335510253906	-678.9815063476562	1506.733032226562	472.7279663085938	-501.2098693847656	1410.177856445312	456.3051452636719	-743.3258056640625	1380.316162109375	561.9091796875	-712.9541625976562	1454.340698242188	380.1597290039062	-615.4676513671875	1480.775390625	296.9718933105469	-621.3676147460938	1355.439819335938	215.1817169189453	-591.7637939453125	1134.29736328125	187.9501953125	-672.9663696289062	1120.422241210938	246.251953125	-483.97265625	894.91748046875	215.8707580566406	-537.4985961914062	871.3132934570312	150.0186920166016	-566.2886352539062	1049.388793945312	177.1219024658203	-479.6039123535156	724.0473022460938	205.9869079589844	-524.816162109375	812.0509643554688	155.4546203613281	-467.40087890625	818.9129028320312	191.6635437011719	-611.353515625	1468.48193359375	625.5038452148438	-626.0647583007812	1402.417114257812	694.0396118164062	-623.6792602539062	1111.473876953125	734.05517578125	-677.8443603515625	1093.480102539062	706.9197387695312	-475.0455932617188	902.6738891601562	703.44775390625	-531.1572265625	872.0960083007812	759.521484375	-612.2584228515625	1055.833374023438	740.9861450195312	-474.8001708984375	719.775390625	695.1760864257812	-457.6487121582031	801.6635131835938	706.9335327148438	-512.532958984375	797.2055053710938	756.2916259765625	-631.0265502929688	1681.255615234375	521.8660278320312	-464.4586181640625	1725.699951171875	405.5650329589844	-498.1027526855469	1724.39013671875	546.451904296875	-584.4387817382812	1683.627197265625	362.8441162109375	-576.5571899414062	942.65966796875	264.0291442871094	-586.0436401367188	941.4696044921875	651.13623046875	-499.1048583984375	970.6566772460938	593.5621337890625	-498.6438903808594	966.4375	316.9153747558594	-566.56689453125	496.0229187011719	317.6343383789062	-557.8602294921875	661.29931640625	281.8829650878906	-654.5240478515625	34.68671417236328	315.61572265625	-635.3973999023438	253.3672943115234	307.0948791503906	-444.6086730957031	38.59993362426758	375.7049865722656	-517.8439331054688	40.98401641845703	410.9683837890625	-531.4823608398438	35.89675903320312	304.6459045410156	-724.1134033203125	36.20362091064453	370.6204223632812	-577.1754760742188	495.9925842285156	597.7843017578125	-551.0416259765625	785.3087768554688	645.3927001953125	-676.082275390625	38.61131286621094	578.8209838867188	-585.0248413085938	353.6322326660156	583.0152587890625	-455.5490112304688	40.22775268554688	534.416259765625	-520.3389892578125	39.30475616455078	493.8997192382812	-541.546630859375	39.07644653320312	595.700927734375	-731.8607177734375	31.06365776062012	523.2503662109375	
4	0.03	-707.9635009765625	1016.657958984375	528.1537475585938	-704.7225341796875	1021.132141113281	394.2886657714844	-703.5396728515625	1108.100463867188	458.86962890625	-479.2044677734375	1299.48779296875	453.3911743164062	-721.3610229492188	1232.833618164062	459.3223571777344	-679.0736694335938	1506.765014648438	472.3186645507812	-501.3320007324219	1410.185791015625	456.1230773925781	-743.4454345703125	1380.302734375	561.5018310546875	-712.977294921875	1454.333129882812	379.8040161132812	-615.3155517578125	1480.761840820312	296.6067199707031	-621.1171264648438	1355.36767578125	214.9938812255859	-591.102294921875	1134.192626953125	188.0806884765625	-672.46142578125	1120.308837890625	246.2559509277344	-482.7960205078125	895.1474609375	216.7044525146484	-536.115478515625	871.25732421875	150.7886505126953	-565.3905639648438	1049.3330078125	177.4437561035156	-477.9494934082031	724.2811279296875	207.1863098144531	-523.314697265625	812.0794067382812	156.3698577880859	-466.0204467773438	819.1669921875	192.7046051025391	-611.580810546875	1468.489135742188	625.1984252929688	-626.3221435546875	1402.501953125	693.7893676757812	-623.7680053710938	1111.564575195312	733.9645385742188	-677.8519897460938	1093.5146484375	706.8230590820312	-478.2553100585938	900.2177734375	700.4500732421875	-530.9842529296875	872.3053588867188	759.5642700195312	-612.317626953125	1055.97314453125	740.9834594726562	-474.4061584472656	720.0363159179688	695.292724609375	-457.2854919433594	801.99658203125	706.901123046875	-512.2852783203125	797.4733276367188	756.3455200195312	-631.10791015625	1681.19677734375	521.6321411132812	-464.5262756347656	1725.60888671875	405.4749755859375	-498.1231384277344	1724.325561523438	546.2152709960938	-584.4884033203125	1683.703979492188	362.6570434570312	-576.2289428710938	942.5809936523438	264.1546325683594	-586.349853515625	941.4400634765625	650.8619384765625	-499.3370361328125	970.6537475585938	593.3641357421875	-498.7166748046875	966.37255859375	316.8324890136719	-566.4700317382812	495.9438781738281	317.5361328125	-557.8438110351562	661.2976684570312	281.6353149414062	-654.5247802734375	34.6995964050293	315.6366882324219	-635.3553466796875	253.3466796875	307.06689453125	-444.582275390625	38.59886169433594	375.7118225097656	-517.8071899414062	40.98602676391602	410.9696655273438	-531.4342651367188	35.93812942504883	304.6369934082031	-724.104248046875	36.19972991943359	370.6279907226562	-577.3742065429688	496.0125732421875	597.6570434570312	-551.2794189453125	785.3451538085938	645.2883911132812	-676.101806640625	38.56867980957031	578.7837524414062	-585.1968994140625	353.6528625488281	582.9515991210938	-455.5554809570312	40.23660278320312	534.4240112304688	-520.3399658203125	39.3138427734375	493.8970947265625	-541.5565795898438	39.07715225219727	595.7003173828125	-731.8547973632812	31.03919219970703	523.2406616210938	
